<svg version="1.1" id="svg1" width="480" height="480" viewBox="0 0 480 480" xmlns="http://www.w3.org/2000/svg">
  <defs id="defs1"></defs>
  
    
  
  <g id="g1">
    <g id="group-R5">
      <path id="path2" d="m 1269.24,2352.51 c -0.8,0 -1.42,0.63 -1.42,1.42 v 155.93 c 0,0.78 0.62,1.42 1.42,1.42 h 1061.53 c 0.78,0 1.42,-0.64 1.42,-1.42 v -155.93 c 0,-0.79 -0.64,-1.42 -1.42,-1.42 z m 85.82,-746.99 c 8.29,-7.39 18.99,-11.42 30,-11.42 1.71,0 3.46,0.11 5.2,0.3 l 446.67,51.94 c 22.99,2.67 42.83,20.87 43.32,44 0.59,28.05 -23.31,49.02 -50.32,46.02 l -398.17,-46.28 c -0.84,-0.1 -1.59,0.55 -1.59,1.4 v 569.38 c 0,0.78 0.64,1.41 1.42,1.41 h 944.3 c 25.7,0 46.53,20.84 46.53,46.54 v 246.16 c 0,25.71 -20.83,46.54 -46.53,46.54 H 1224.12 c -25.7,0 -46.54,-20.83 -46.54,-46.54 v -246.16 c 0,-25.7 20.84,-46.54 46.54,-46.54 h 114.39 c 0.78,0 1.43,-0.63 1.43,-1.41 v -621.64 c 0,-12.87 5.5,-25.14 15.12,-33.7" style="fill:#f14b1c;fill-opacity:1;fill-rule:nonzero;stroke:none" transform="matrix(0.13333333,0,0,-0.13333333,0,480)"></path>
      <path id="path3" d="M 2314.33,1270.8 V 1112.04 H 1249.97 v 158.76 z m 873.55,511.84 -83.9,-9.12 -937.46,-108.36 c -16.42,-1.89 -28.83,-15.82 -28.83,-32.36 v -271.76 h -932.85 c -24.91,0 -45.12,-20.2 -45.12,-45.12 v -249.01 c 0,-24.91 20.21,-45.12 45.12,-45.12 h 1154.61 c 24.92,0 45.12,20.21 45.12,45.12 v 249.01 c 0,24.92 -20.2,45.12 -45.12,45.12 h -131.52 v 197.08 c 0,13.27 9.95,24.45 23.14,25.97 l 894.49,103.41 C 3085.87,968.082 2459.95,406.891 1715.62,452.871 1048.37,494.09 505.328,1029.18 455.027,1695.81 c -59.699,791.1 567.113,1453.95 1345.823,1453.95 611.66,0 1129.26,-409.09 1294.42,-967.93 L 1840.92,2015.29 c -18.73,-2.81 -35.18,-16.24 -38.8,-34.81 -5.96,-30.64 17,-55.12 44.13,-55.12 2.22,0 4.48,0.16 6.75,0.51 l 1212.66,160.27 h 0.01 l 52.31,7.86 c 0.03,-0.11 0.04,-0.21 0.06,-0.33 l 47.02,6.76 c 22.91,3.29 38.42,25.6 32.82,48.06 -163.74,656.19 -778.54,1135.8 -1494.75,1088.26 C 978.023,3188.62 396.773,2595.33 362.488,1869.44 323.504,1043.99 983.797,360 1800.85,360 c 771.86,0 1403.6,610.512 1438.25,1373.97 1.3,28.57 -22.79,51.77 -51.22,48.67" style="fill:#f14b1c;fill-opacity:1;fill-rule:nonzero;stroke:none" transform="matrix(0.13333333,0,0,-0.13333333,0,480)"></path>
    </g>
  </g>
</svg>
