<svg width="18" height="20" viewBox="0 0 18 20" fill="none" xmlns="http://www.w3.org/2000/svg">
<path d="M12.7593 17.6963H0.635194C0.403929 17.6963 0.216615 17.5078 0.216615 17.275V14.7469C0.216615 14.5141 0.403929 14.3256 0.635194 14.3256H12.7593C12.9906 14.3256 13.1779 14.5141 13.1779 14.7469V17.275C13.1779 17.5078 12.9906 17.6963 12.7593 17.6963ZM17.1628 13.2649H14.6513C14.4201 13.2649 14.2327 13.0763 14.2327 12.8435V0.639385C14.2327 0.406594 14.4201 0.218044 14.6513 0.218044H17.1628C17.3941 0.218044 17.5814 0.406594 17.5814 0.639385V12.8435C17.5803 13.0763 17.393 13.2649 17.1628 13.2649ZM13.3945 6.74146C13.3945 10.4651 10.3965 13.4829 6.69727 13.4829C2.99807 13.4829 0 10.4651 0 6.74146C0 3.01785 2.99807 0 6.69727 0C10.3965 0 13.3945 3.01891 13.3945 6.74146Z" fill="#171717"/>
</svg>
