<svg xmlns="http://www.w3.org/2000/svg" viewBox="27 28 1240 1046" role="img" aria-label="idiolect"><g transform="translate(0.000000,1120.000000) scale(0.100000,-0.100000)" fill="#15161A"><path d="M4521 10560 c-66 -7 -96 -37 -86 -85 9 -46 15 -5478 6 -5815 -4 -162
-4 -299 0 -304 16 -18 109 55 134 105 22 43 91 133 190 246 20 23 44 57 54 75
9 18 44 67 77 108 33 41 76 102 95 135 34 60 34 60 36 2495 3 2435 3 2435 24
2453 31 25 1441 27 1477 1 22 -15 22 -15 22 -1399 0 -875 4 -1393 10 -1409 13
-36 44 -33 93 9 22 19 44 35 49 35 4 0 14 13 22 28 8 15 58 64 111 108 53 43
136 112 185 151 57 48 92 84 99 104 18 53 15 2919 -3 2945 -14 19 -39 19
-1278 20 -695 0 -1287 -2 -1317 -6z"/><path d="M8050 7409 c-36 -11 -98 -26 -138 -34 -40 -8 -89 -23 -110 -34 -20
-10 -72 -33 -115 -50 -131 -52 -228 -114 -370 -236 -45 -39 -98 -81 -117 -95
-97 -66 -400 -360 -473 -459 -44 -60 -176 -213 -212 -246 -12 -11 -36 -41 -53
-67 -54 -82 -75 -111 -142 -189 -117 -138 -165 -196 -182 -225 -10 -16 -38
-56 -63 -89 -24 -33 -56 -77 -71 -99 -14 -21 -37 -48 -50 -60 -25 -21 -73 -94
-118 -178 -14 -26 -35 -52 -46 -58 -11 -6 -33 -36 -49 -68 -16 -31 -52 -86
-80 -122 -27 -36 -59 -81 -70 -100 -18 -34 -60 -96 -131 -195 -19 -26 -48 -60
-64 -74 -15 -14 -39 -46 -53 -71 -43 -80 -89 -142 -191 -256 -21 -23 -55 -72
-77 -109 -22 -37 -58 -88 -81 -114 -23 -25 -53 -64 -67 -86 -14 -22 -54 -74
-89 -117 -35 -42 -97 -118 -140 -170 -42 -51 -110 -128 -152 -171 -42 -44 -76
-83 -76 -88 0 -20 -144 -171 -181 -189 -21 -11 -39 -24 -39 -29 0 -15 -89
-119 -175 -204 -44 -43 -134 -132 -201 -198 -66 -65 -128 -119 -137 -119 -9 0
-42 -25 -74 -57 -114 -111 -249 -219 -324 -258 -21 -11 -51 -32 -66 -47 -67
-63 -282 -194 -335 -203 -21 -4 -48 -19 -65 -37 -15 -17 -50 -41 -78 -54 -27
-14 -66 -33 -85 -43 -121 -63 -183 -86 -335 -127 -222 -59 -272 -65 -510 -65
-247 -1 -326 12 -411 68 -152 99 -218 178 -244 293 -45 197 -19 463 61 622 39
78 110 187 140 213 12 11 30 39 40 63 10 24 33 62 51 84 63 79 312 319 350
338 40 19 86 53 144 107 53 48 151 113 197 129 23 8 51 23 62 34 11 10 43 29
70 41 28 12 59 29 70 39 23 21 172 100 242 129 91 38 178 70 219 80 23 6 58
22 78 36 20 14 58 30 84 36 71 18 84 26 167 104 65 61 76 221 24 348 -14 34
-116 97 -167 104 -41 5 -165 -18 -253 -47 -32 -11 -72 -20 -88 -20 -19 0 -44
-12 -71 -35 -22 -19 -58 -37 -78 -41 -20 -3 -56 -19 -78 -35 -23 -15 -62 -33
-88 -39 -25 -5 -64 -23 -86 -39 -22 -16 -61 -34 -86 -40 -26 -7 -65 -25 -88
-40 -23 -16 -59 -36 -81 -45 -22 -10 -53 -30 -70 -45 -34 -31 -83 -62 -154
-97 -27 -12 -69 -41 -95 -63 -26 -23 -51 -41 -55 -41 -10 0 -177 -133 -254
-203 -160 -144 -240 -223 -346 -344 -130 -147 -164 -197 -246 -363 -31 -63
-67 -135 -80 -160 -12 -25 -30 -70 -39 -101 -8 -31 -25 -68 -37 -84 -38 -47
-59 -372 -40 -595 10 -119 15 -142 42 -195 18 -33 37 -79 44 -102 13 -42 41
-92 102 -181 18 -26 42 -68 53 -93 16 -34 32 -51 63 -67 40 -21 89 -57 164
-118 18 -14 52 -33 75 -43 24 -9 61 -28 83 -43 22 -15 64 -32 93 -38 28 -5 69
-18 90 -29 135 -69 724 -68 897 2 33 14 93 27 135 31 60 5 83 12 115 35 25 18
64 34 100 40 33 6 80 22 105 35 25 13 69 31 99 41 95 31 347 159 420 212 23
18 53 35 65 39 11 4 37 19 56 34 19 15 53 35 75 44 22 10 51 28 65 41 14 13
42 31 62 39 21 9 42 25 48 36 6 11 61 57 123 103 61 46 155 124 208 174 53 49
125 111 160 137 66 49 141 131 170 183 38 69 93 41 105 -53 3 -31 5 -432 2
-891 -5 -812 -5 -835 14 -859 19 -24 19 -24 1327 -24 1252 0 1309 1 1324 18
22 24 27 4353 5 4379 -32 38 -71 5 -165 -142 -14 -22 -40 -56 -57 -76 -17 -21
-47 -56 -66 -80 -19 -23 -51 -60 -70 -82 -19 -22 -44 -55 -55 -73 -11 -18 -49
-75 -85 -126 l-65 -93 -3 -1556 c-2 -1488 -3 -1557 -20 -1572 -17 -15 -86 -17
-746 -18 -400 -1 -730 2 -734 6 -9 8 -19 1755 -11 1881 6 103 -10 76 169 285
115 134 135 159 153 195 24 46 137 183 205 247 18 17 37 48 43 70 5 21 25 55
43 75 18 20 70 91 116 157 46 66 96 134 111 150 15 17 38 53 52 80 14 28 47
78 74 113 26 35 58 78 71 95 13 18 36 46 51 62 16 17 38 50 50 75 26 54 92
149 112 160 8 5 39 48 69 96 30 48 69 103 86 123 17 20 44 59 59 86 35 61 71
109 146 195 31 36 66 82 78 104 27 47 117 160 161 201 18 17 49 55 70 85 21
30 65 83 97 117 280 300 278 297 425 435 136 126 168 153 214 176 22 11 46 28
54 37 7 9 30 23 49 31 20 8 50 28 66 43 17 16 48 34 70 41 22 7 52 19 68 27
177 90 313 -8 363 -262 22 -110 25 -550 6 -710 -7 -55 -19 -172 -27 -260 -7
-88 -20 -225 -29 -305 -8 -80 -18 -194 -21 -255 -4 -60 -13 -157 -22 -215 -23
-158 -23 -503 0 -655 10 -66 22 -150 27 -186 6 -36 24 -106 40 -155 17 -49 38
-114 47 -144 9 -33 30 -71 52 -96 20 -23 62 -76 94 -118 52 -67 135 -138 203
-174 67 -35 291 -86 379 -85 102 0 300 47 370 87 213 122 226 132 321 237 22
25 53 55 68 67 16 12 55 61 88 109 34 49 73 102 88 118 15 17 36 46 45 65 16
32 44 75 142 216 17 25 40 52 51 60 11 8 29 43 41 81 11 38 32 85 46 105 14
20 25 41 25 47 0 5 16 30 35 56 20 25 46 66 58 89 25 50 65 118 112 191 18 28
47 76 66 109 19 32 54 82 79 111 25 29 65 79 90 111 70 92 180 193 223 206 21
6 48 22 60 35 26 28 69 53 92 53 9 0 49 14 88 31 85 38 171 36 266 -6 31 -13
74 -29 97 -34 22 -6 51 -22 64 -36 13 -14 47 -32 74 -40 28 -9 69 -28 91 -44
68 -48 170 -65 246 -40 56 19 157 125 174 183 29 96 21 141 -37 228 -34 49
-64 82 -83 90 -42 17 -167 98 -185 120 -9 11 -62 30 -131 48 -64 16 -138 40
-165 52 -74 34 -529 35 -614 1 -30 -12 -93 -33 -140 -47 -51 -15 -106 -40
-135 -61 -28 -19 -55 -35 -61 -35 -7 0 -32 -19 -57 -42 -25 -24 -69 -63 -98
-88 -78 -67 -273 -287 -329 -371 -27 -41 -62 -92 -77 -113 -40 -55 -76 -111
-122 -186 -21 -36 -48 -74 -60 -84 -11 -10 -27 -42 -35 -70 -9 -29 -27 -63
-40 -75 -14 -13 -31 -40 -37 -60 -15 -49 -89 -172 -116 -194 -12 -9 -29 -41
-39 -69 -23 -70 -90 -194 -131 -243 -19 -22 -49 -58 -68 -80 -19 -22 -53 -63
-77 -91 -85 -102 -235 -219 -301 -234 -148 -34 -226 25 -312 240 -55 136 -56
141 -56 505 -1 359 6 446 45 605 15 59 26 143 30 221 4 69 16 182 26 250 46
288 46 938 1 1077 -12 35 -21 83 -21 105 0 56 -15 105 -39 131 -11 12 -27 42
-36 66 -14 40 -58 114 -107 180 -82 111 -94 123 -137 142 -25 10 -57 30 -71
42 -23 22 -152 65 -255 87 -63 13 -125 9 -195 -12z"/></g></svg>