<svg width="1024" height="1024" viewBox="0 0 1024 1024" fill="none" xmlns="http://www.w3.org/2000/svg">
<rect width="1024" height="1024" rx="204.8" fill="url(#paint0_linear_1412_2242)"></rect>
<g clip-path="url(#clip0_1412_2242)">
<path fill-rule="evenodd" clip-rule="evenodd" d="M735.881 509.761C735.881 634.644 634.644 735.881 509.761 735.881C384.879 735.881 283.642 634.644 283.642 509.761C283.642 384.879 384.879 283.642 509.761 283.642C634.644 283.642 735.881 384.879 735.881 509.761ZM509.761 682.149C604.969 682.149 682.149 604.969 682.149 509.761C682.149 414.554 604.969 337.373 509.761 337.373C414.554 337.373 337.373 414.554 337.373 509.761C337.373 604.969 414.554 682.149 509.761 682.149Z" fill="white"></path>
<path fill-rule="evenodd" clip-rule="evenodd" d="M436.74 534.901C437.847 534.499 439.068 535.073 439.502 536.169C450.582 564.171 477.899 583.915 509.761 583.915C541.624 583.915 568.94 564.171 580.021 536.169C580.454 535.073 581.675 534.499 582.783 534.901L629.277 551.785C630.384 552.187 630.957 553.414 630.536 554.515C611.977 603.086 564.939 637.647 509.761 637.647C454.584 637.647 407.545 603.086 388.986 554.515C388.565 553.414 389.138 552.187 390.246 551.785L436.74 534.901Z" fill="white"></path>
<path fill-rule="evenodd" clip-rule="evenodd" d="M758.269 740.358V652.939C758.269 651.761 759.224 650.806 760.402 650.806H809.867C811.045 650.806 812 651.761 812 652.939V740.358C812 779.925 779.925 812 740.358 812H652.939C651.761 812 650.806 811.045 650.806 809.867V760.402C650.806 759.224 651.761 758.269 652.939 758.269H740.358C750.25 758.269 758.269 750.25 758.269 740.358Z" fill="white"></path>
<path fill-rule="evenodd" clip-rule="evenodd" d="M265.731 283.642V371.061C265.731 372.239 264.776 373.194 263.598 373.194H214.133C212.955 373.194 212 372.239 212 371.061V283.642C212 244.075 244.075 212 283.642 212H371.061C372.239 212 373.194 212.955 373.194 214.133V263.598C373.194 264.776 372.239 265.731 371.061 265.731H283.642C273.75 265.731 265.731 273.75 265.731 283.642Z" fill="white"></path>
</g>
<defs>
<linearGradient id="paint0_linear_1412_2242" x1="259.24" y1="793.924" x2="868.456" y2="252.76" gradientUnits="userSpaceOnUse">
<stop stop-color="#4361EE"></stop>
<stop offset="1" stop-color="#7B61FF"></stop>
</linearGradient>
<clipPath id="clip0_1412_2242">
<rect width="600" height="600" fill="white" transform="translate(212 212)"></rect>
</clipPath>
</defs>
</svg>
